<svg width="26" height="16" viewBox="0 0 26 16" fill="none" xmlns="http://www.w3.org/2000/svg">
<path d="M10.0951 7.2481C10.0951 7.2481 12.4614 7.0683 12.4614 4.23692C12.4614 1.40788 10.8565 0.0132894 8.40348 0.0132894L0 0V15.6344H8.59891C8.59891 15.6344 12.8984 15.7704 12.8984 10.9441C12.8984 10.9441 13.2142 7.2481 10.0951 7.2481ZM3.12687 2.34516H7.42633C7.42633 2.34516 8.89752 2.36939 8.89752 4.27678C8.89752 6.25375 7.42633 6.25375 7.42633 6.25375H3.12687V2.34516ZM7.81719 13.2892H3.12687V8.59891H7.81719C7.81719 8.59891 10.1623 8.62314 10.1623 10.9441C10.1623 13.265 8.15489 13.2892 7.81719 13.2892Z" fill="white"/>
<path d="M19.5432 3.90895C13.6701 3.90895 13.6803 9.77184 13.6803 9.77184C13.6803 9.77184 13.2894 15.6347 19.5432 15.6347C19.5432 15.6347 25.0152 15.6347 25.0152 10.9444H21.8883C21.8883 10.9444 21.8883 13.2896 19.5432 13.2896C19.5432 13.2896 17.198 13.2896 17.198 10.1627C17.198 10.1627 23.4518 10.1627 25.0152 10.1627C25.0152 8.59926 25.0152 3.90895 19.5432 3.90895ZM17.198 8.59926C17.198 8.59926 17.1464 6.2541 19.5432 6.2541C21.9391 6.2541 21.8883 8.59926 21.8883 8.59926H17.198Z" fill="white"/>
<path d="M22.6703 1.56358H16.4165V3.12702H22.6703V1.56358Z" fill="white"/>
</svg>
