<svg width="26" height="26" viewBox="0 0 26 26" fill="none" xmlns="http://www.w3.org/2000/svg">
<path d="M13.0147 25.5C6.11205 25.5 0.5 19.8977 0.5 13.0049C0.5 6.10227 6.11205 0.5 13.0147 0.5C19.9173 0.5 25.5293 6.10227 25.5293 12.9951C25.5293 19.888 19.9173 25.5 13.0147 25.5ZM23.5641 14.7061C23.2024 14.5888 20.2595 13.7186 16.9059 14.2466C18.3041 18.0792 18.8711 21.2079 18.9787 21.8531C21.3838 20.2399 23.0948 17.6783 23.5641 14.7061ZM17.1895 22.8406C17.033 21.902 16.4073 18.6365 14.9114 14.7452C14.8919 14.755 14.8625 14.7648 14.843 14.7648C8.81052 16.8668 6.64979 21.0417 6.45424 21.4327C8.263 22.8406 10.5411 23.6815 13.0147 23.6815C14.491 23.6912 15.9087 23.3881 17.1895 22.8406ZM5.07567 20.1519C5.3201 19.7413 8.25323 14.8919 13.7675 13.1027C13.9044 13.0538 14.051 13.0147 14.1879 12.9756C13.9239 12.3694 13.6306 11.7632 13.3178 11.1668C7.97947 12.7605 2.79761 12.692 2.32831 12.6822C2.32831 12.7898 2.31854 12.8973 2.31854 13.0049C2.32831 15.7522 3.36469 18.2552 5.07567 20.1519ZM2.55319 10.8246C3.03226 10.8344 7.43195 10.8539 12.4378 9.52425C10.6682 6.37603 8.75186 3.73621 8.4781 3.35491C5.47653 4.76281 3.24736 7.51995 2.55319 10.8246ZM10.5117 2.6314C10.805 3.02249 12.7507 5.6623 14.5008 8.87896C18.3041 7.45151 19.9075 5.30055 20.1031 5.02679C18.2161 3.35491 15.7327 2.33809 13.0147 2.33809C12.1543 2.33809 11.3135 2.44564 10.5117 2.6314ZM21.2861 6.2587C21.0612 6.56179 19.272 8.85941 15.3221 10.4726C15.5665 10.981 15.8109 11.4992 16.0358 12.0174C16.114 12.2032 16.1922 12.3889 16.2704 12.5649C19.8293 12.1152 23.3588 12.8387 23.7108 12.9071C23.6815 10.3944 22.782 8.07724 21.2861 6.2587Z" fill="white"/>
</svg>
