<svg width="23" height="23" viewBox="0 0 23 23" fill="none" xmlns="http://www.w3.org/2000/svg">
<path d="M7.48523 11.1215C7.48523 9.111 9.11562 7.48072 11.1274 7.48072C13.1391 7.48072 14.7704 9.111 14.7704 11.1215C14.7704 13.1321 13.1391 14.7624 11.1274 14.7624C9.11562 14.7624 7.48523 13.1321 7.48523 11.1215ZM5.51589 11.1215C5.51589 14.2189 8.02814 16.7296 11.1274 16.7296C14.2266 16.7296 16.7388 14.2189 16.7388 11.1215C16.7388 8.02417 14.2266 5.51343 11.1274 5.51343C8.02814 5.51343 5.51589 8.02417 5.51589 11.1215ZM15.6496 5.29107C15.6495 5.55028 15.7263 5.8037 15.8703 6.01928C16.0143 6.23487 16.2191 6.40293 16.4586 6.50222C16.6982 6.60151 16.9619 6.62757 17.2163 6.5771C17.4707 6.52664 17.7044 6.40191 17.8879 6.21869C18.0714 6.03548 18.1963 5.802 18.247 5.54779C18.2977 5.29358 18.2719 5.03006 18.1727 4.79054C18.0736 4.55102 17.9056 4.34627 17.69 4.20217C17.4744 4.05807 17.2209 3.98111 16.9615 3.981H16.961C16.6133 3.98117 16.2799 4.11923 16.0341 4.36486C15.7882 4.6105 15.6499 4.94362 15.6496 5.29107ZM6.71239 20.0114C5.64694 19.963 5.06784 19.7856 4.68299 19.6357C4.17278 19.4372 3.80874 19.2008 3.42599 18.8188C3.04324 18.4368 2.80632 18.0733 2.60857 17.5634C2.45855 17.179 2.28107 16.6001 2.23264 15.5353C2.17966 14.384 2.16908 14.0382 2.16908 11.1216C2.16908 8.20504 2.18053 7.86018 2.23264 6.70799C2.28116 5.64318 2.45994 5.06539 2.60857 4.67981C2.8072 4.1699 3.04377 3.80608 3.42599 3.42357C3.80821 3.04105 4.1719 2.80427 4.68299 2.60663C5.06766 2.4567 5.64694 2.27933 6.71239 2.23093C7.8643 2.17798 8.21033 2.16741 11.1274 2.16741C14.0444 2.16741 14.3908 2.17885 15.5436 2.23093C16.6091 2.27942 17.1872 2.4581 17.573 2.60663C18.0832 2.80427 18.4473 3.04157 18.83 3.42357C19.2128 3.80556 19.4488 4.1699 19.6475 4.67981C19.7975 5.06425 19.975 5.64318 20.0234 6.70799C20.0764 7.86018 20.0869 8.20504 20.0869 11.1216C20.0869 14.0382 20.0764 14.3831 20.0234 15.5353C19.9749 16.6001 19.7965 17.1788 19.6475 17.5634C19.4488 18.0733 19.2123 18.4372 18.83 18.8188C18.4478 19.2005 18.0832 19.4372 17.573 19.6357C17.1884 19.7857 16.6091 19.963 15.5436 20.0114C14.3917 20.0644 14.0457 20.075 11.1274 20.075C8.20902 20.075 7.86395 20.0644 6.71239 20.0114ZM6.6219 0.266092C5.45854 0.31904 4.66358 0.503396 3.96934 0.773378C3.25035 1.05218 2.6417 1.42623 2.03348 2.03312C1.42527 2.64001 1.05196 3.24926 0.77299 3.96781C0.502846 4.66207 0.318379 5.45612 0.2654 6.61879C0.211546 7.78329 0.199219 8.15558 0.199219 11.1215C0.199219 14.0875 0.211546 14.4598 0.2654 15.6243C0.318379 16.787 0.502846 17.581 0.77299 18.2753C1.05196 18.9934 1.42536 19.6033 2.03348 20.21C2.64161 20.8166 3.25035 21.1901 3.96934 21.4697C4.66489 21.7397 5.45854 21.924 6.6219 21.977C7.78772 22.0299 8.15962 22.0431 11.1274 22.0431C14.0951 22.0431 14.4676 22.0308 15.6328 21.977C16.7963 21.924 17.5907 21.7397 18.2854 21.4697C19.0039 21.1901 19.613 20.8168 20.2212 20.21C20.8294 19.6031 21.202 18.9934 21.4817 18.2753C21.7519 17.581 21.9372 16.787 21.9893 15.6243C22.0423 14.4589 22.0546 14.0875 22.0546 11.1215C22.0546 8.15558 22.0423 7.78329 21.9893 6.61879C21.9363 5.45603 21.7519 4.66164 21.4817 3.96781C21.202 3.24969 20.8285 2.64097 20.2212 2.03312C19.614 1.42527 19.0039 1.05218 18.2862 0.773378C17.5907 0.503396 16.7962 0.318166 15.6337 0.266092C14.4685 0.213144 14.096 0.199951 11.1282 0.199951C8.1605 0.199951 7.78772 0.212271 6.6219 0.266092Z" fill="white"/>
</svg>
