<svg width="28" height="28" viewBox="0 0 28 28" fill="none" xmlns="http://www.w3.org/2000/svg">
<path d="M9.60751 14.152C9.60751 11.6388 11.6455 9.60096 14.1602 9.60096C16.6748 9.60096 18.7139 11.6388 18.7139 14.152C18.7139 16.6651 16.6748 18.703 14.1602 18.703C11.6455 18.703 9.60751 16.6651 9.60751 14.152ZM7.14584 14.152C7.14584 18.0237 10.2861 21.1621 14.1602 21.1621C18.0342 21.1621 21.1745 18.0237 21.1745 14.152C21.1745 10.2803 18.0342 7.14185 14.1602 7.14185C10.2861 7.14185 7.14584 10.2803 7.14584 14.152ZM19.813 6.8639C19.8128 7.18791 19.9089 7.50469 20.0889 7.77416C20.2689 8.04364 20.5248 8.25372 20.8243 8.37784C21.1238 8.50195 21.4533 8.53452 21.7713 8.47144C22.0893 8.40836 22.3815 8.25245 22.6108 8.02343C22.8402 7.7944 22.9964 7.50256 23.0598 7.1848C23.1232 6.86704 23.0908 6.53763 22.9669 6.23823C22.8429 5.93883 22.6329 5.68289 22.3634 5.50277C22.0939 5.32265 21.7771 5.22645 21.4528 5.22632H21.4522C21.0176 5.22652 20.6009 5.39909 20.2935 5.70614C19.9862 6.01318 19.8133 6.42959 19.813 6.8639ZM8.64146 25.2644C7.30965 25.2038 6.58577 24.982 6.10471 24.7947C5.46695 24.5466 5.0119 24.2511 4.53347 23.7736C4.05503 23.2961 3.75888 22.8417 3.51169 22.2044C3.32416 21.7238 3.10232 21.0001 3.04178 19.6691C2.97555 18.2301 2.96233 17.7978 2.96233 14.1521C2.96233 10.5064 2.97664 10.0753 3.04178 8.63505C3.10243 7.30404 3.32591 6.58179 3.51169 6.09982C3.75997 5.46244 4.05569 5.00767 4.53347 4.52952C5.01124 4.05137 5.46585 3.7554 6.10471 3.50835C6.58555 3.32094 7.30965 3.09923 8.64146 3.03872C10.0814 2.97254 10.5139 2.95932 14.1602 2.95932C17.8065 2.95932 18.2394 2.97363 19.6805 3.03872C21.0123 3.09934 21.735 3.32268 22.2173 3.50835C22.855 3.7554 23.3101 4.05203 23.7885 4.52952C24.267 5.00701 24.562 5.46244 24.8103 6.09982C24.9978 6.58037 25.2197 7.30404 25.2802 8.63505C25.3464 10.0753 25.3597 10.5064 25.3597 14.1521C25.3597 17.7978 25.3464 18.2289 25.2802 19.6691C25.2196 21.0001 24.9966 21.7236 24.8103 22.2044C24.562 22.8417 24.2663 23.2965 23.7885 23.7736C23.3107 24.2506 22.855 24.5466 22.2173 24.7947C21.7364 24.9822 21.0123 25.2039 19.6805 25.2644C18.2406 25.3305 17.8081 25.3438 14.1602 25.3438C10.5122 25.3438 10.0809 25.3305 8.64146 25.2644ZM8.52836 0.582676C7.07415 0.648861 6.08045 0.879307 5.21265 1.21678C4.31392 1.56529 3.5531 2.03284 2.79283 2.79146C2.03256 3.55007 1.56593 4.31163 1.21721 5.20982C0.879534 6.07765 0.648951 7.07021 0.582726 8.52354C0.515409 9.97917 0.5 10.4445 0.5 14.152C0.5 17.8594 0.515409 18.3248 0.582726 19.7804C0.648951 21.2339 0.879534 22.2263 1.21721 23.0941C1.56593 23.9918 2.03267 24.7542 2.79283 25.5125C3.55299 26.2708 4.31392 26.7377 5.21265 27.0872C6.08209 27.4247 7.07415 27.6551 8.52836 27.7213C9.98562 27.7875 10.4505 27.804 14.1602 27.804C17.8698 27.804 18.3355 27.7886 19.792 27.7213C21.2463 27.6551 22.2393 27.4247 23.1077 27.0872C24.0059 26.7377 24.7672 26.2711 25.5275 25.5125C26.2878 24.7539 26.7534 23.9918 27.1031 23.0941C27.4408 22.2263 27.6725 21.2338 27.7376 19.7804C27.8038 18.3237 27.8193 17.8594 27.8193 14.152C27.8193 10.4445 27.8038 9.97917 27.7376 8.52354C27.6714 7.0701 27.4408 6.07711 27.1031 5.20982C26.7534 4.31218 26.2866 3.55127 25.5275 2.79146C24.7684 2.03164 24.0059 1.56529 23.1088 1.21678C22.2393 0.879307 21.2462 0.647769 19.7931 0.582676C18.3366 0.516492 17.8709 0.5 14.1613 0.5C10.4516 0.5 9.98562 0.515399 8.52836 0.582676Z" fill="white"/>
</svg>
