<svg width="19" height="26" viewBox="0 0 19 26" fill="none" xmlns="http://www.w3.org/2000/svg">
<path d="M8.27786 0.583605C4.21964 1.04737 0.175722 4.40845 0.00881513 9.20964C-0.0960978 12.1411 0.716977 14.3403 3.44233 14.9579C4.62499 12.8221 3.06083 12.351 2.81762 10.806C1.81856 4.47435 9.9517 0.156453 14.2078 4.57687C17.1525 7.63772 15.214 17.0546 10.4643 16.0758C5.91494 15.1409 12.6914 7.64504 9.05994 6.1732C6.10807 4.97717 4.53915 9.83206 5.93878 12.2436C5.11855 16.3907 3.35172 20.2985 4.06704 25.5C6.38705 23.7767 7.16912 20.4767 7.81052 17.0351C8.97649 17.76 9.59881 18.5142 11.0867 18.6314C16.5731 19.0659 19.6371 13.0247 18.8884 7.45221C18.2231 2.51189 13.4067 -0.0022034 8.27786 0.583605Z" fill="white"/>
</svg>
