<svg width="23" height="23" viewBox="0 0 23 23" fill="none" xmlns="http://www.w3.org/2000/svg">
<path fill-rule="evenodd" clip-rule="evenodd" d="M1.81453 0.199951C0.922696 0.199951 0.199219 0.901401 0.199219 1.76558V20.4911C0.199219 21.3554 0.922781 22.0562 1.81453 22.0562H20.4402C21.3324 22.0562 22.0555 21.3553 22.0555 20.4909V1.76558C22.0555 0.901401 21.3324 0.199951 20.4402 0.199951H1.81453ZM6.84095 8.65106V18.4908H3.57037V8.65106H6.84095ZM7.05653 5.608C7.05653 6.55226 6.34663 7.30784 5.20634 7.30784L5.18491 7.30776C4.08723 7.30776 3.37759 6.55218 3.37759 5.60792C3.37759 4.64223 4.10866 3.90774 5.22803 3.90774C6.34663 3.90774 7.03518 4.64223 7.05653 5.608ZM11.9216 18.4908H8.65127C8.65127 18.4908 8.69413 9.57449 8.65144 8.6514H11.9219V10.0442C12.3566 9.37385 13.1347 8.42038 14.8695 8.42038C17.0212 8.42038 18.6345 9.82678 18.6345 12.849V18.4908H15.3642V13.2274C15.3642 11.9045 14.8906 11.0022 13.7075 11.0022C12.8038 11.0022 12.2657 11.6107 12.0293 12.1985C11.9429 12.4083 11.9216 12.7028 11.9216 12.9964V18.4908Z" fill="white"/>
</svg>
