<svg width="16" height="20" viewBox="0 0 16 20" fill="none" xmlns="http://www.w3.org/2000/svg">
<path d="M7.02268 0.0668842C3.7761 0.437896 0.540968 3.12676 0.407443 6.96771C0.323512 9.3129 0.973972 11.0723 3.15425 11.5663C4.10038 9.8577 2.84905 9.48083 2.65449 8.24477C1.85524 3.17948 8.36175 -0.274838 11.7667 3.26149C14.1224 5.71017 12.5716 13.2437 8.77187 12.4606C5.13234 11.7128 10.5535 5.71603 7.64834 4.53856C5.28685 3.58174 4.03171 7.46565 5.15142 9.39491C4.49523 12.7125 3.08177 15.8388 3.65402 20C5.51003 18.6214 6.13569 15.9814 6.64881 13.2281C7.58158 13.808 8.07944 14.4114 9.26973 14.5051C13.6589 14.8527 16.1101 10.0198 15.5111 5.56177C14.9789 1.60951 11.1257 -0.401763 7.02268 0.0668842Z" fill="white"/>
</svg>
