<svg width="360" height="493" viewBox="0 0 360 493" fill="none" xmlns="http://www.w3.org/2000/svg">
<path d="M-261.32 29.5773C-266.548 23.9919 -243.969 19.8807 -242.52 19.5708C-207.328 12.0455 -162.954 17.6305 -123.209 21.6209C-67.452 27.219 -14.5121 41.6807 42.9123 70.3492C64.9449 81.3488 86.6764 92.811 107.614 107.382C122.737 117.906 143.747 131.497 151.442 148.317C155.808 157.86 153.823 165.213 149.437 171.217C139.18 185.258 123.197 196.104 107.062 203.952C72.0861 220.964 22.1395 219.475 -25.2999 207.154C-32.7524 205.218 -43.916 201.627 -49.7806 194.214C-55.5587 186.912 -49.3348 177.93 -46.8537 173.524C-29.5533 142.807 22.9655 154.849 62.2114 165.441C90.1188 172.973 118.479 183.235 146.108 197.845C175.801 213.546 212.376 236.086 235.253 263.043C262.251 294.853 185.995 305.418 172.302 307.429C148.725 310.892 123.66 311.999 97.6063 309.418C85.7248 308.241 64.776 307.252 52.2856 298.245C40.8667 290.011 67.0453 283.601 69.2325 283.022C89.2184 277.729 111.496 276.391 135.184 279.737C182.057 286.358 239.001 299.662 285.172 332.609C298.66 342.234 319.759 357.385 323.632 373.031C327.358 388.079 312.323 391.147 300.699 392.302C297.559 392.614 249.043 393.588 253.964 383.988C255.547 380.9 257.653 378.324 262.174 379.091C270.704 380.539 285.179 385.6 290.946 387.438C382.277 416.54 473.702 447.601 565.07 477.724" stroke="#FFFA59" stroke-width="30" stroke-linecap="round"/>
</svg>
