<svg width="360" height="314" viewBox="0 0 360 314" fill="none" xmlns="http://www.w3.org/2000/svg">
<path d="M661.741 290.108L-300.998 290.108" stroke="white" stroke-opacity="0.2"/>
<path d="M661.739 265.624L-301 265.624" stroke="white" stroke-opacity="0.2"/>
<path d="M661.739 241.753L-301 241.753" stroke="white" stroke-opacity="0.2"/>
<path d="M661.741 217.269L-300.998 217.269" stroke="white" stroke-opacity="0.2"/>
<path d="M292.034 0L292.034 314" stroke="white" stroke-opacity="0.2"/>
<path d="M661.741 193.398L-300.998 193.398" stroke="white" stroke-opacity="0.2"/>
<path d="M216.967 0L216.967 314" stroke="white" stroke-opacity="0.2"/>
<path d="M661.739 168.915L-301 168.915" stroke="white" stroke-opacity="0.2"/>
<path d="M143.775 0L143.775 314" stroke="white" stroke-opacity="0.2"/>
<path d="M661.739 145.043L-301 145.043" stroke="white" stroke-opacity="0.2"/>
<path d="M68.709 0L68.709 314" stroke="white" stroke-opacity="0.2"/>
<path d="M661.741 120.56L-300.998 120.56" stroke="white" stroke-opacity="0.2"/>
<path d="M661.741 96.6885L-300.998 96.6884" stroke="white" stroke-opacity="0.2"/>
<path d="M661.739 72.2052L-301 72.2051" stroke="white" stroke-opacity="0.2"/>
<path d="M661.739 48.3339L-301 48.3338" stroke="white" stroke-opacity="0.2"/>
<path d="M661.741 23.8712L-300.998 23.8712" stroke="white" stroke-opacity="0.2"/>
</svg>
