<svg width="307" height="49" viewBox="0 0 307 49" fill="none" xmlns="http://www.w3.org/2000/svg">
<path d="M2 35.7043C2.8145 37.3238 7.46494 36.9888 8.88322 37.1147C18.4649 37.9652 28.0032 36.5206 37.5195 35.4953C88.6706 29.9842 139.352 21.4087 190.317 14.4958C227.96 9.38984 265.799 4.73131 303.706 2.06324C309.506 1.655 293.935 3.35629 293.828 3.36918C278.316 5.22548 262.928 8.35705 247.589 11.2571C202.495 19.7828 157.599 29.7524 112.657 39.0475C103.873 40.8643 93.2366 42.106 84.9665 45.9429C82.3621 47.1511 93.7981 47 94.582 46.9876C129.971 46.4262 165.802 40.3662 200.93 36.4356C224.786 33.7664 249.368 29.1223 273.441 29.1223" stroke="#FFFA64" stroke-width="2.5" stroke-linecap="round"/>
</svg>
